<svg width="101" height="100" viewBox="0 0 101 100" fill="none" xmlns="http://www.w3.org/2000/svg">
<rect x="0.5" width="100" height="100" rx="15" fill="#DE0220"/>
<path d="M44.875 31.375H75.8125V35.125H44.875V31.375ZM25.1875 33.25C25.1875 34.7334 25.6274 36.1834 26.4515 37.4168C27.2756 38.6501 28.4469 39.6114 29.8174 40.1791C31.1878 40.7468 32.6958 40.8953 34.1507 40.6059C35.6055 40.3165 36.9419 39.6022 37.9908 38.5533C39.0397 37.5044 39.754 36.168 40.0434 34.7132C40.3328 33.2583 40.1843 31.7503 39.6166 30.3799C39.0489 29.0094 38.0876 27.8381 36.8543 27.014C35.6209 26.1899 34.1709 25.75 32.6875 25.75C30.6991 25.7522 28.7927 26.5431 27.3867 27.9492C25.9806 29.3552 25.1897 31.2616 25.1875 33.25ZM32.6875 29.5C33.4292 29.5 34.1542 29.7199 34.7709 30.132C35.3876 30.544 35.8682 31.1297 36.152 31.8149C36.4359 32.5002 36.5101 33.2542 36.3654 33.9816C36.2208 34.709 35.8636 35.3772 35.3392 35.9017C34.8147 36.4261 34.1465 36.7833 33.4191 36.9279C32.6917 37.0726 31.9377 36.9984 31.2524 36.7145C30.5672 36.4307 29.9815 35.9501 29.5695 35.3334C29.1574 34.7167 28.9375 33.9917 28.9375 33.25C28.9386 32.2558 29.3341 31.3026 30.0371 30.5996C30.7401 29.8966 31.6933 29.5011 32.6875 29.5ZM44.875 50.125H75.8125V53.875H44.875V50.125ZM32.6875 59.5C34.1709 59.5 35.6209 59.0601 36.8543 58.236C38.0876 57.4119 39.0489 56.2406 39.6166 54.8701C40.1843 53.4997 40.3328 51.9917 40.0434 50.5368C39.754 49.082 39.0397 47.7456 37.9908 46.6967C36.9419 45.6478 35.6055 44.9335 34.1507 44.6441C32.6958 44.3547 31.1878 44.5032 29.8174 45.0709C28.4469 45.6386 27.2756 46.5999 26.4515 47.8332C25.6274 49.0666 25.1875 50.5166 25.1875 52C25.1897 53.9884 25.9806 55.8948 27.3867 57.3008C28.7927 58.7069 30.6991 59.4978 32.6875 59.5ZM32.6875 48.25C33.4292 48.25 34.1542 48.4699 34.7709 48.882C35.3876 49.294 35.8682 49.8797 36.152 50.5649C36.4359 51.2502 36.5101 52.0042 36.3654 52.7316C36.2208 53.459 35.8636 54.1272 35.3392 54.6516C34.8147 55.1761 34.1465 55.5333 33.4191 55.6779C32.6917 55.8226 31.9377 55.7484 31.2524 55.4645C30.5672 55.1807 29.9815 54.7001 29.5695 54.0834C29.1574 53.4667 28.9375 52.7417 28.9375 52C28.9386 51.0058 29.3341 50.0526 30.0371 49.3496C30.7401 48.6466 31.6933 48.2511 32.6875 48.25ZM44.875 68.875H75.8125V72.625H44.875V68.875ZM32.6875 78.25C34.1709 78.25 35.6209 77.8101 36.8543 76.986C38.0876 76.1619 39.0489 74.9906 39.6166 73.6201C40.1843 72.2497 40.3328 70.7417 40.0434 69.2868C39.754 67.832 39.0397 66.4956 37.9908 65.4467C36.9419 64.3978 35.6055 63.6835 34.1507 63.3941C32.6958 63.1047 31.1878 63.2532 29.8174 63.8209C28.4469 64.3886 27.2756 65.3499 26.4515 66.5832C25.6274 67.8166 25.1875 69.2666 25.1875 70.75C25.1897 72.7384 25.9806 74.6448 27.3867 76.0508C28.7927 77.4569 30.6991 78.2478 32.6875 78.25ZM32.6875 67C33.4292 67 34.1542 67.2199 34.7709 67.632C35.3876 68.044 35.8682 68.6297 36.152 69.3149C36.4359 70.0002 36.5101 70.7542 36.3654 71.4816C36.2208 72.209 35.8636 72.8772 35.3392 73.4016C34.8147 73.9261 34.1465 74.2832 33.4191 74.4279C32.6917 74.5726 31.9377 74.4984 31.2524 74.2146C30.5672 73.9307 29.9815 73.4501 29.5695 72.8334C29.1574 72.2167 28.9375 71.4917 28.9375 70.75C28.9386 69.7558 29.3341 68.8026 30.0371 68.0996C30.7401 67.3966 31.6933 67.0011 32.6875 67Z" fill="white"/>
</svg>
