<svg width="100" height="100" viewBox="0 0 100 100" fill="none" xmlns="http://www.w3.org/2000/svg">
<rect width="100" height="100" rx="15" fill="#DE0220"/>
<path d="M65.5 50H53" stroke="white" stroke-width="3" stroke-linecap="round"/>
<path d="M45.5 32.5H61.75C62.91 32.5 63.4925 32.5 63.98 32.565C65.6163 32.7808 67.1357 33.5303 68.3027 34.6973C69.4697 35.8643 70.2192 37.3837 70.435 39.02C70.5 39.5075 70.5 40.09 70.5 41.25" stroke="white" stroke-width="3"/>
<path d="M75.5 54.495C75.5 47.915 75.5 44.6225 73.575 42.485C73.3984 42.2877 73.2115 42.0999 73.015 41.9225C70.8775 40 67.585 40 61.005 40H60.07C57.1875 40 55.745 40 54.4 39.6175C53.6619 39.4065 52.9505 39.1112 52.28 38.7375C51.06 38.06 50.04 37.0375 48 35L46.625 33.625C45.94 32.94 45.6 32.6 45.24 32.3C43.6917 31.0166 41.7923 30.2299 39.79 30.0425C39.325 30 38.84 30 37.875 30C35.6675 30 34.565 30 33.645 30.175C31.6696 30.5481 29.8525 31.5078 28.4308 32.9291C27.009 34.3504 26.0487 36.1672 25.675 38.1425C25.5 39.065 25.5 40.17 25.5 42.375M75.4775 65C75.3875 71.2 74.9275 74.7125 72.57 77.07C69.6425 80 64.9275 80 55.5 80H45.5C36.0725 80 31.3575 80 28.43 77.07C25.5 74.1425 25.5 69.4275 25.5 60V52.5" stroke="white" stroke-width="3" stroke-linecap="round"/>
</svg>
