<svg width="101" height="100" viewBox="0 0 101 100" fill="none" xmlns="http://www.w3.org/2000/svg">
<rect x="0.5" width="100" height="100" rx="15" fill="#DE0220"/>
<path d="M42.5625 31.25C40.8241 31.2569 39.159 31.9505 37.9297 33.1797C36.7005 34.409 36.0069 36.0741 36 37.8125C36 41.4163 38.9587 44.375 42.5625 44.375C46.1663 44.375 49.125 41.4163 49.125 37.8125C49.125 34.2088 46.1663 31.25 42.5625 31.25ZM59.4375 31.25C57.6991 31.2569 56.034 31.9505 54.8047 33.1797C53.5755 34.409 52.8819 36.0741 52.875 37.8125C52.875 41.4163 55.8337 44.375 59.4375 44.375C63.0412 44.375 66 41.4163 66 37.8125C66 34.2088 63.0412 31.25 59.4375 31.25ZM42.5625 35C44.1375 35 45.375 36.2375 45.375 37.8125C45.375 39.3875 44.1375 40.625 42.5625 40.625C40.9875 40.625 39.75 39.3875 39.75 37.8125C39.75 36.2375 40.9875 35 42.5625 35ZM59.4375 35C61.0125 35 62.25 36.2375 62.25 37.8125C62.25 39.3875 61.0125 40.625 59.4375 40.625C57.8625 40.625 56.625 39.3875 56.625 37.8125C56.625 36.2375 57.8625 35 59.4375 35ZM34.125 42.5C30 42.5 26.625 45.875 26.625 50C26.625 52.0869 27.5194 53.9694 28.9106 55.3325C27.6344 56.1937 26.5881 57.354 25.8629 58.7122C25.1377 60.0704 24.7556 61.5853 24.75 63.125H28.5C28.5 59.9975 30.9975 57.5 34.125 57.5C37.2525 57.5 39.75 59.9975 39.75 63.125H43.5C43.4944 61.5853 43.1123 60.0704 42.3871 58.7122C41.6619 57.354 40.6156 56.1937 39.3394 55.3325C40.7306 53.9694 41.625 52.0888 41.625 50C41.625 45.875 38.25 42.5 34.125 42.5ZM43.5 63.125C42.3281 64.6925 41.625 66.6631 41.625 68.75H45.375C45.375 65.6225 47.8725 63.125 51 63.125C54.1275 63.125 56.625 65.6225 56.625 68.75H60.375C60.3718 66.7221 59.7142 64.7493 58.5 63.125C57.8625 62.2756 57.0938 61.55 56.2144 60.9575C57.6056 59.5944 58.5 57.7138 58.5 55.625C58.5 51.5 55.125 48.125 51 48.125C46.875 48.125 43.5 51.5 43.5 55.625C43.5 57.7119 44.3944 59.5944 45.7856 60.9575C44.9079 61.5471 44.1353 62.2798 43.5 63.125ZM58.5 63.125H62.25C62.25 59.9975 64.7475 57.5 67.875 57.5C71.0025 57.5 73.5 59.9975 73.5 63.125H77.25C77.2444 61.5853 76.8623 60.0704 76.1371 58.7122C75.4119 57.354 74.3656 56.1937 73.0894 55.3325C74.4806 53.9694 75.375 52.0888 75.375 50C75.375 45.875 72 42.5 67.875 42.5C63.75 42.5 60.375 45.875 60.375 50C60.375 52.0869 61.2694 53.9694 62.6606 55.3325C61.3844 56.1937 60.3381 57.354 59.6129 58.7122C58.8877 60.0704 58.5056 61.5853 58.5 63.125ZM34.125 46.25C36.2194 46.25 37.875 47.9056 37.875 50C37.875 52.0944 36.2194 53.75 34.125 53.75C32.0306 53.75 30.375 52.0944 30.375 50C30.375 47.9056 32.0306 46.25 34.125 46.25ZM67.875 46.25C69.9694 46.25 71.625 47.9056 71.625 50C71.625 52.0944 69.9694 53.75 67.875 53.75C65.7806 53.75 64.125 52.0944 64.125 50C64.125 47.9056 65.7806 46.25 67.875 46.25ZM51 51.875C53.0944 51.875 54.75 53.5306 54.75 55.625C54.75 57.7194 53.0944 59.375 51 59.375C48.9056 59.375 47.25 57.7194 47.25 55.625C47.25 53.5306 48.9056 51.875 51 51.875Z" fill="white"/>
</svg>
